{"accessors":[{"bufferView":0,"byteOffset":0,"componentType":5126,"count":3945,"max":[10.0,21.95789909362793,21.95789909362793],"min":[-3.552710078910475e-15,-21.95789909362793,-21.95789909362793],"type":"VEC3"},{"bufferView":1,"byteOffset":0,"componentType":5126,"count":3945,"max":[1.0,1.0,1.0],"min":[-1.0,-1.0,-1.0],"type":"VEC3"},{"bufferView":2,"byteOffset":0,"componentType":5126,"count":3945,"max":[1.0,1.0],"min":[0.0,0.0],"type":"VEC2"},{"bufferView":3,"byteOffset":0,"componentType":5125,"count":10272,"type":"SCALAR"}],"asset":{"copyright":"KiM GmbH","extra":{"CADClick_SWAP_AXIS":false},"generator":"CADClick glTF Export 1.7.1.1","version":"2.0"},"bufferViews":[{"buffer":0,"byteLength":47340,"byteOffset":0},{"buffer":0,"byteLength":47340,"byteOffset":47340},{"buffer":0,"byteLength":31560,"byteOffset":94680},{"buffer":0,"byteLength":41088,"byteOffset":126240}],"buffers":[{"byteLength":167328,"uri":"data:application/octet-stream;base64,"}],"materials":[{"alphaMode":"OPAQUE","doubleSided":true,"name":"M_dFFFF80_0_0","pbrMetallicRoughness":{"baseColorFactor":[1.0,1.0,0.2158605307340622,1.0],"metallicFactor":1.0,"roughnessFactor":0.0}}],"meshes":[{"primitives":[{"attributes":{"NORMAL":1,"POSITION":0,"TEXCOORD_0":2},"indices":3,"material":0,"mode":4}]}],"nodes":[{"children":[1]},{"mesh":0,"name":"00114228_202504242243320813_0001"}],"scene":0,"scenes":[{"name":"10301_para_engranajes_1","nodes":[0]}]}